# xmcd
#
# Track frame offsets:
#	150
#	31160
#	49795
#	70715
#	84022
#	100345
#	115470
#	136192
#	150380
#	172772
#
# Disc length: 2709 seconds
#
# Revision: 1
# Processed by: cddbd v1.5.1PL0 Copyright (c) Steve Scherf et al.
# Submitted via: CDex 1.50Beta5
#
DISCID=6c0a930a
DTITLE=チューリップ - 10th ODYSSEY,THE/OTO GRA・音蔵シリーズ
DYEAR=1993
DGENRE=
TTITLE0=10th ODYSSEY,THE
TTITLE1=愛の遭難者
TTITLE2=めぐり逢いは想い出
TTITLE3=ささやかな子守唄
TTITLE4=たとえば I LOVE YOU
TTITLE5=恋のテレポーテイション
TTITLE6=渚に佇んで
TTITLE7=愛のゆくえ
TTITLE8=街は黄昏がれに抱かれ
TTITLE9=地球の空から
EXTD=
EXTT0=
EXTT1=
EXTT2=
EXTT3=
EXTT4=
EXTT5=
EXTT6=
EXTT7=
EXTT8=
EXTT9=
PLAYORDER=
